<mxfile host="Electron" modified="2023-09-15T14:00:01.567Z" agent="Mozilla/5.0 (Windows NT 10.0; Win64; x64) AppleWebKit/537.36 (KHTML, like Gecko) draw.io/21.6.8 Chrome/114.0.5735.289 Electron/25.5.0 Safari/537.36" etag="BEw1Cvrltf_hzuXzwe1v" version="21.6.8" type="device">
  <diagram id="R2lEEEUBdFMjLlhIrx00" name="Page-1">
    <mxGraphModel dx="2268" dy="828" grid="1" gridSize="10" guides="1" tooltips="1" connect="1" arrows="1" fold="1" page="1" pageScale="1" pageWidth="850" pageHeight="1100" math="0" shadow="0" extFonts="Permanent Marker^https://fonts.googleapis.com/css?family=Permanent+Marker">
      <root>
        <mxCell id="0" />
        <mxCell id="1" parent="0" />
        <mxCell id="1dnU3uixtINABwG3OAUZ-8" value="Система" style="ellipse;whiteSpace=wrap;html=1;" parent="1" vertex="1">
          <mxGeometry x="360" y="370" width="140" height="100" as="geometry" />
        </mxCell>
        <mxCell id="ORAruu2829INZkp4m5q3-1" value="Сотрудник центрального склада" style="rounded=1;whiteSpace=wrap;html=1;" parent="1" vertex="1">
          <mxGeometry x="-30" y="380" width="120" height="60" as="geometry" />
        </mxCell>
        <mxCell id="ORAruu2829INZkp4m5q3-12" style="rounded=0;orthogonalLoop=1;jettySize=auto;html=1;" parent="1" edge="1">
          <mxGeometry relative="1" as="geometry">
            <mxPoint x="240" y="150" as="sourcePoint" />
            <mxPoint x="390" y="380" as="targetPoint" />
          </mxGeometry>
        </mxCell>
        <mxCell id="ORAruu2829INZkp4m5q3-13" value="Осуществление приёмки и&lt;br&gt;выдачи запчастей" style="edgeLabel;html=1;align=center;verticalAlign=middle;resizable=0;points=[];rotation=58;" parent="ORAruu2829INZkp4m5q3-12" vertex="1" connectable="0">
          <mxGeometry x="-0.0504" y="-1" relative="1" as="geometry">
            <mxPoint x="10" y="-19" as="offset" />
          </mxGeometry>
        </mxCell>
        <mxCell id="ORAruu2829INZkp4m5q3-2" value="Сотрудник склада СТО" style="rounded=1;whiteSpace=wrap;html=1;" parent="1" vertex="1">
          <mxGeometry x="120" y="120" width="120" height="60" as="geometry" />
        </mxCell>
        <mxCell id="ORAruu2829INZkp4m5q3-10" style="edgeStyle=orthogonalEdgeStyle;rounded=0;orthogonalLoop=1;jettySize=auto;html=1;" parent="1" edge="1">
          <mxGeometry relative="1" as="geometry">
            <mxPoint x="425" y="167.94" as="sourcePoint" />
            <mxPoint x="424.9999999999999" y="370.00301968591833" as="targetPoint" />
            <Array as="points">
              <mxPoint x="425.9" y="327.94" />
              <mxPoint x="425.9" y="327.94" />
            </Array>
          </mxGeometry>
        </mxCell>
        <mxCell id="ORAruu2829INZkp4m5q3-11" value="Ввод заявок на поставку&lt;br&gt;запчастей" style="edgeLabel;html=1;align=center;verticalAlign=middle;resizable=0;points=[];rotation=90;" parent="ORAruu2829INZkp4m5q3-10" vertex="1" connectable="0">
          <mxGeometry x="-0.1092" y="1" relative="1" as="geometry">
            <mxPoint x="-16" y="2" as="offset" />
          </mxGeometry>
        </mxCell>
        <mxCell id="ORAruu2829INZkp4m5q3-3" value="Менеджер СТО" style="rounded=1;whiteSpace=wrap;html=1;" parent="1" vertex="1">
          <mxGeometry x="380" y="110" width="120" height="60" as="geometry" />
        </mxCell>
        <mxCell id="ORAruu2829INZkp4m5q3-4" value="Бухгалтерия" style="rounded=1;whiteSpace=wrap;html=1;" parent="1" vertex="1">
          <mxGeometry x="620" y="140" width="120" height="60" as="geometry" />
        </mxCell>
        <mxCell id="ORAruu2829INZkp4m5q3-5" value="Финансовый директор/руководство холдинга" style="rounded=1;whiteSpace=wrap;html=1;" parent="1" vertex="1">
          <mxGeometry x="720" y="300" width="120" height="60" as="geometry" />
        </mxCell>
        <mxCell id="ORAruu2829INZkp4m5q3-6" value="Администратор системы" style="rounded=1;whiteSpace=wrap;html=1;" parent="1" vertex="1">
          <mxGeometry x="660" y="540" width="120" height="60" as="geometry" />
        </mxCell>
        <mxCell id="ORAruu2829INZkp4m5q3-7" value="Поставщик запчастей" style="rounded=1;whiteSpace=wrap;html=1;" parent="1" vertex="1">
          <mxGeometry x="140" y="630" width="120" height="60" as="geometry" />
        </mxCell>
        <mxCell id="ORAruu2829INZkp4m5q3-8" value="" style="endArrow=classic;html=1;rounded=0;entryX=0.5;entryY=1;entryDx=0;entryDy=0;" parent="1" target="ORAruu2829INZkp4m5q3-3" edge="1">
          <mxGeometry width="50" height="50" relative="1" as="geometry">
            <mxPoint x="439.5" y="370" as="sourcePoint" />
            <mxPoint x="439.52" y="180" as="targetPoint" />
          </mxGeometry>
        </mxCell>
        <mxCell id="ORAruu2829INZkp4m5q3-9" value="Информация об остатках &lt;br style=&quot;font-size: 11px;&quot;&gt;на складах, о заказах, данные &lt;br style=&quot;font-size: 11px;&quot;&gt;по прогнозу спроса" style="edgeLabel;html=1;align=center;verticalAlign=middle;resizable=0;points=[];rotation=90;fontFamily=Helvetica;fontSize=11;fontStyle=0" parent="ORAruu2829INZkp4m5q3-8" vertex="1" connectable="0">
          <mxGeometry x="0.0855" y="2" relative="1" as="geometry">
            <mxPoint x="25" y="9" as="offset" />
          </mxGeometry>
        </mxCell>
        <mxCell id="ORAruu2829INZkp4m5q3-16" value="" style="endArrow=classic;html=1;rounded=0;entryX=0.917;entryY=1;entryDx=0;entryDy=0;entryPerimeter=0;exitX=0.064;exitY=0.28;exitDx=0;exitDy=0;exitPerimeter=0;" parent="1" source="1dnU3uixtINABwG3OAUZ-8" target="ORAruu2829INZkp4m5q3-2" edge="1">
          <mxGeometry width="50" height="50" relative="1" as="geometry">
            <mxPoint x="570" y="460" as="sourcePoint" />
            <mxPoint x="620" y="410" as="targetPoint" />
          </mxGeometry>
        </mxCell>
        <mxCell id="ORAruu2829INZkp4m5q3-17" value="Информация о наличии на &lt;br&gt;центральном складе, информация о &lt;br&gt;состоянии закупок для склада" style="edgeLabel;html=1;align=center;verticalAlign=middle;resizable=0;points=[];rotation=57;" parent="ORAruu2829INZkp4m5q3-16" vertex="1" connectable="0">
          <mxGeometry x="0.1202" relative="1" as="geometry">
            <mxPoint x="-31" y="-6" as="offset" />
          </mxGeometry>
        </mxCell>
        <mxCell id="ORAruu2829INZkp4m5q3-18" value="" style="endArrow=classic;html=1;rounded=0;exitX=0.983;exitY=0.367;exitDx=0;exitDy=0;exitPerimeter=0;entryX=0.042;entryY=0.299;entryDx=0;entryDy=0;entryPerimeter=0;" parent="1" source="ORAruu2829INZkp4m5q3-1" target="1dnU3uixtINABwG3OAUZ-8" edge="1">
          <mxGeometry width="50" height="50" relative="1" as="geometry">
            <mxPoint x="570" y="460" as="sourcePoint" />
            <mxPoint x="360" y="400" as="targetPoint" />
          </mxGeometry>
        </mxCell>
        <mxCell id="ORAruu2829INZkp4m5q3-19" value="Заказ на поставку запчастей,&lt;br&gt;информация о наличии,&lt;br&gt;информация о заказах поставщику,&lt;br&gt;приёмка и выдача запчастей&amp;nbsp;" style="edgeLabel;html=1;align=center;verticalAlign=middle;resizable=0;points=[];rotation=0;" parent="ORAruu2829INZkp4m5q3-18" vertex="1" connectable="0">
          <mxGeometry x="-0.0167" relative="1" as="geometry">
            <mxPoint x="-37" y="-31" as="offset" />
          </mxGeometry>
        </mxCell>
        <mxCell id="ORAruu2829INZkp4m5q3-20" value="" style="endArrow=classic;html=1;rounded=0;entryX=1;entryY=0.75;entryDx=0;entryDy=0;exitX=0;exitY=0.5;exitDx=0;exitDy=0;" parent="1" source="1dnU3uixtINABwG3OAUZ-8" target="ORAruu2829INZkp4m5q3-1" edge="1">
          <mxGeometry width="50" height="50" relative="1" as="geometry">
            <mxPoint x="570" y="460" as="sourcePoint" />
            <mxPoint x="620" y="410" as="targetPoint" />
          </mxGeometry>
        </mxCell>
        <mxCell id="ORAruu2829INZkp4m5q3-21" value="Информация о заказах поставщику,&lt;br&gt;запрос с СТО,&lt;br&gt;запрос на наличие,&amp;nbsp;&lt;br&gt;статистические данные" style="edgeLabel;html=1;align=center;verticalAlign=middle;resizable=0;points=[];rotation=359;" parent="ORAruu2829INZkp4m5q3-20" vertex="1" connectable="0">
          <mxGeometry x="0.1484" y="2" relative="1" as="geometry">
            <mxPoint x="5" y="25" as="offset" />
          </mxGeometry>
        </mxCell>
        <mxCell id="ORAruu2829INZkp4m5q3-22" value="" style="endArrow=classic;html=1;rounded=0;exitX=0.079;exitY=0.78;exitDx=0;exitDy=0;exitPerimeter=0;entryX=0.25;entryY=0;entryDx=0;entryDy=0;" parent="1" source="1dnU3uixtINABwG3OAUZ-8" target="ORAruu2829INZkp4m5q3-7" edge="1">
          <mxGeometry width="50" height="50" relative="1" as="geometry">
            <mxPoint x="570" y="460" as="sourcePoint" />
            <mxPoint x="620" y="410" as="targetPoint" />
          </mxGeometry>
        </mxCell>
        <mxCell id="ORAruu2829INZkp4m5q3-23" value="Запрос о наличии, сроках поставки,&lt;br&gt;закупка запчастей" style="edgeLabel;html=1;align=center;verticalAlign=middle;resizable=0;points=[];rotation=318;" parent="ORAruu2829INZkp4m5q3-22" vertex="1" connectable="0">
          <mxGeometry x="0.0141" relative="1" as="geometry">
            <mxPoint x="-14" y="-15" as="offset" />
          </mxGeometry>
        </mxCell>
        <mxCell id="ORAruu2829INZkp4m5q3-24" value="" style="endArrow=classic;html=1;rounded=0;exitX=0.558;exitY=0;exitDx=0;exitDy=0;exitPerimeter=0;" parent="1" source="ORAruu2829INZkp4m5q3-7" edge="1">
          <mxGeometry width="50" height="50" relative="1" as="geometry">
            <mxPoint x="340" y="510" as="sourcePoint" />
            <mxPoint x="390" y="460" as="targetPoint" />
          </mxGeometry>
        </mxCell>
        <mxCell id="ORAruu2829INZkp4m5q3-25" value="Данные по запросам, &lt;br&gt;документы по закупкам" style="edgeLabel;html=1;align=center;verticalAlign=middle;resizable=0;points=[];rotation=317;" parent="ORAruu2829INZkp4m5q3-24" vertex="1" connectable="0">
          <mxGeometry x="0.0397" y="-2" relative="1" as="geometry">
            <mxPoint x="11" y="12" as="offset" />
          </mxGeometry>
        </mxCell>
        <mxCell id="ORAruu2829INZkp4m5q3-26" value="" style="endArrow=classic;html=1;rounded=0;exitX=0.771;exitY=0.07;exitDx=0;exitDy=0;exitPerimeter=0;entryX=0;entryY=0.75;entryDx=0;entryDy=0;" parent="1" source="1dnU3uixtINABwG3OAUZ-8" target="ORAruu2829INZkp4m5q3-4" edge="1">
          <mxGeometry width="50" height="50" relative="1" as="geometry">
            <mxPoint x="570" y="460" as="sourcePoint" />
            <mxPoint x="620" y="410" as="targetPoint" />
          </mxGeometry>
        </mxCell>
        <mxCell id="ORAruu2829INZkp4m5q3-27" value="Данные по закупкам, &lt;br&gt;счета на оплату" style="edgeLabel;html=1;align=center;verticalAlign=middle;resizable=0;points=[];rotation=309;" parent="ORAruu2829INZkp4m5q3-26" vertex="1" connectable="0">
          <mxGeometry x="-0.2157" y="2" relative="1" as="geometry">
            <mxPoint x="14" y="-50" as="offset" />
          </mxGeometry>
        </mxCell>
        <mxCell id="ORAruu2829INZkp4m5q3-28" value="" style="endArrow=classic;html=1;rounded=0;exitX=0.25;exitY=1;exitDx=0;exitDy=0;entryX=0.95;entryY=0.27;entryDx=0;entryDy=0;entryPerimeter=0;" parent="1" source="ORAruu2829INZkp4m5q3-4" target="1dnU3uixtINABwG3OAUZ-8" edge="1">
          <mxGeometry width="50" height="50" relative="1" as="geometry">
            <mxPoint x="570" y="460" as="sourcePoint" />
            <mxPoint x="490" y="400" as="targetPoint" />
          </mxGeometry>
        </mxCell>
        <mxCell id="ORAruu2829INZkp4m5q3-29" value="Данные об оплате по счетам" style="edgeLabel;html=1;align=center;verticalAlign=middle;resizable=0;points=[];rotation=310;" parent="ORAruu2829INZkp4m5q3-28" vertex="1" connectable="0">
          <mxGeometry x="0.3357" relative="1" as="geometry">
            <mxPoint x="47" y="-41" as="offset" />
          </mxGeometry>
        </mxCell>
        <mxCell id="ORAruu2829INZkp4m5q3-30" value="" style="endArrow=classic;html=1;rounded=0;exitX=0;exitY=0.25;exitDx=0;exitDy=0;" parent="1" source="ORAruu2829INZkp4m5q3-5" edge="1">
          <mxGeometry width="50" height="50" relative="1" as="geometry">
            <mxPoint x="570" y="460" as="sourcePoint" />
            <mxPoint x="500" y="425" as="targetPoint" />
          </mxGeometry>
        </mxCell>
        <mxCell id="ORAruu2829INZkp4m5q3-31" value="Планы по финансовой &lt;br&gt;деятельности" style="edgeLabel;html=1;align=center;verticalAlign=middle;resizable=0;points=[];rotation=333;" parent="ORAruu2829INZkp4m5q3-30" vertex="1" connectable="0">
          <mxGeometry x="0.35" y="-1" relative="1" as="geometry">
            <mxPoint x="39" y="-38" as="offset" />
          </mxGeometry>
        </mxCell>
        <mxCell id="ORAruu2829INZkp4m5q3-32" value="" style="endArrow=classic;html=1;rounded=0;entryX=0.025;entryY=0.65;entryDx=0;entryDy=0;entryPerimeter=0;exitX=0.891;exitY=0.807;exitDx=0;exitDy=0;exitPerimeter=0;" parent="1" source="1dnU3uixtINABwG3OAUZ-8" target="ORAruu2829INZkp4m5q3-5" edge="1">
          <mxGeometry width="50" height="50" relative="1" as="geometry">
            <mxPoint x="490" y="450" as="sourcePoint" />
            <mxPoint x="620" y="410" as="targetPoint" />
          </mxGeometry>
        </mxCell>
        <mxCell id="ORAruu2829INZkp4m5q3-33" value="статистика, отчетность" style="edgeLabel;html=1;align=center;verticalAlign=middle;resizable=0;points=[];rotation=336;" parent="ORAruu2829INZkp4m5q3-32" vertex="1" connectable="0">
          <mxGeometry x="0.1513" y="-2" relative="1" as="geometry">
            <mxPoint x="8" y="9" as="offset" />
          </mxGeometry>
        </mxCell>
        <mxCell id="ORAruu2829INZkp4m5q3-34" value="" style="endArrow=classic;html=1;rounded=0;entryX=0.933;entryY=-0.017;entryDx=0;entryDy=0;entryPerimeter=0;exitX=1;exitY=1;exitDx=0;exitDy=0;" parent="1" source="1dnU3uixtINABwG3OAUZ-8" target="ORAruu2829INZkp4m5q3-6" edge="1">
          <mxGeometry width="50" height="50" relative="1" as="geometry">
            <mxPoint x="570" y="460" as="sourcePoint" />
            <mxPoint x="620" y="410" as="targetPoint" />
          </mxGeometry>
        </mxCell>
        <mxCell id="ORAruu2829INZkp4m5q3-37" value="Логи, ошибки,&lt;br&gt;список ролей и пользователей" style="edgeLabel;html=1;align=center;verticalAlign=middle;resizable=0;points=[];rotation=15;" parent="ORAruu2829INZkp4m5q3-34" vertex="1" connectable="0">
          <mxGeometry x="0.0641" y="1" relative="1" as="geometry">
            <mxPoint x="-16" y="-29" as="offset" />
          </mxGeometry>
        </mxCell>
        <mxCell id="ORAruu2829INZkp4m5q3-38" value="" style="endArrow=classic;html=1;rounded=0;exitX=0.5;exitY=0;exitDx=0;exitDy=0;entryX=0.75;entryY=0.93;entryDx=0;entryDy=0;entryPerimeter=0;" parent="1" source="ORAruu2829INZkp4m5q3-6" target="1dnU3uixtINABwG3OAUZ-8" edge="1">
          <mxGeometry width="50" height="50" relative="1" as="geometry">
            <mxPoint x="570" y="460" as="sourcePoint" />
            <mxPoint x="440" y="460" as="targetPoint" />
          </mxGeometry>
        </mxCell>
        <mxCell id="ORAruu2829INZkp4m5q3-39" value="создание пользователей,&lt;br&gt;назначение прав" style="edgeLabel;html=1;align=center;verticalAlign=middle;resizable=0;points=[];rotation=15;" parent="ORAruu2829INZkp4m5q3-38" vertex="1" connectable="0">
          <mxGeometry x="0.2513" y="2" relative="1" as="geometry">
            <mxPoint x="22" y="22" as="offset" />
          </mxGeometry>
        </mxCell>
        <mxCell id="bp6UnvGL2NZW7SLAJsJS-1" value="Роскомнадзор" style="rounded=1;whiteSpace=wrap;html=1;" vertex="1" parent="1">
          <mxGeometry x="420" y="630" width="120" height="60" as="geometry" />
        </mxCell>
        <mxCell id="bp6UnvGL2NZW7SLAJsJS-2" value="" style="endArrow=classic;html=1;rounded=0;exitX=0.158;exitY=-0.017;exitDx=0;exitDy=0;exitPerimeter=0;entryX=0.55;entryY=1;entryDx=0;entryDy=0;entryPerimeter=0;" edge="1" parent="1" source="bp6UnvGL2NZW7SLAJsJS-1" target="1dnU3uixtINABwG3OAUZ-8">
          <mxGeometry width="50" height="50" relative="1" as="geometry">
            <mxPoint x="470" y="450" as="sourcePoint" />
            <mxPoint x="440" y="470" as="targetPoint" />
          </mxGeometry>
        </mxCell>
        <mxCell id="bp6UnvGL2NZW7SLAJsJS-5" value="Запрос информации" style="edgeLabel;html=1;align=center;verticalAlign=middle;resizable=0;points=[];rotation=89;" vertex="1" connectable="0" parent="bp6UnvGL2NZW7SLAJsJS-2">
          <mxGeometry x="0.0315" y="1" relative="1" as="geometry">
            <mxPoint x="-7" y="3" as="offset" />
          </mxGeometry>
        </mxCell>
        <mxCell id="bp6UnvGL2NZW7SLAJsJS-3" value="" style="endArrow=classic;html=1;rounded=0;exitX=0.672;exitY=0.989;exitDx=0;exitDy=0;exitPerimeter=0;entryX=0.333;entryY=0.167;entryDx=0;entryDy=0;entryPerimeter=0;" edge="1" parent="1" source="1dnU3uixtINABwG3OAUZ-8">
          <mxGeometry width="50" height="50" relative="1" as="geometry">
            <mxPoint x="453.94000000000005" y="461.98" as="sourcePoint" />
            <mxPoint x="459.96000000000004" y="630" as="targetPoint" />
          </mxGeometry>
        </mxCell>
        <mxCell id="bp6UnvGL2NZW7SLAJsJS-4" value="Информация по запросу" style="edgeLabel;html=1;align=center;verticalAlign=middle;resizable=0;points=[];rotation=88;" vertex="1" connectable="0" parent="bp6UnvGL2NZW7SLAJsJS-3">
          <mxGeometry x="-0.1783" y="3" relative="1" as="geometry">
            <mxPoint x="11" y="15" as="offset" />
          </mxGeometry>
        </mxCell>
      </root>
    </mxGraphModel>
  </diagram>
</mxfile>
